<?xml version="1.0" standalone="no"?>
<!DOCTYPE svg PUBLIC "-//W3C//DTD SVG 20010904//EN"
 "http://www.w3.org/TR/2001/REC-SVG-20010904/DTD/svg10.dtd">
<svg version="1.0" xmlns="http://www.w3.org/2000/svg"
 width="403.000000pt" height="403.000000pt" viewBox="0 0 403.000000 403.000000"
 preserveAspectRatio="xMidYMid meet">
<metadata>
Created by potrace 1.14, written by Peter Selinger 2001-2017
</metadata>
<g transform="translate(0.000000,403.000000) scale(0.100000,-0.100000)"
fill="#000000" stroke="none">
<path d="M1948 4025 c-2 -2 -16 -6 -33 -9 -61 -11 -228 -62 -285 -88 -24 -11
-49 -21 -55 -22 -5 -1 -49 -21 -97 -44 -47 -23 -91 -42 -97 -42 -6 0 -11 -4
-11 -8 0 -5 -12 -14 -27 -21 -32 -15 -162 -99 -181 -118 -7 -7 -17 -13 -21
-13 -6 0 -62 -49 -151 -133 -61 -58 -120 -130 -174 -212 -49 -74 -119 -207
-116 -220 0 -3 -6 -18 -14 -33 -25 -48 -56 -121 -56 -135 0 -7 -4 -17 -9 -22
-4 -6 -23 -57 -41 -115 -18 -58 -35 -112 -38 -120 -3 -8 -6 -17 -7 -20 0 -3
-4 -14 -8 -25 -3 -11 -9 -31 -11 -45 -3 -14 -14 -65 -25 -115 -32 -151 -50
-284 -55 -417 -1 -33 -10 -46 -65 -98 -35 -33 -67 -60 -70 -60 -3 -1 -22 -24
-41 -51 -19 -28 -40 -56 -45 -62 -33 -38 -69 -169 -52 -186 8 -8 8 -11 -1 -11
-7 0 -6 -15 6 -47 19 -53 77 -115 153 -167 l51 -34 -31 -23 c-37 -27 -61 -85
-55 -130 6 -37 39 -73 61 -65 7 3 13 2 13 -3 0 -8 57 -7 97 2 37 9 87 39 110
66 13 14 24 23 24 19 2 -12 5 -21 13 -43 45 -117 60 -155 72 -182 8 -18 21
-50 30 -70 22 -51 96 -200 121 -243 45 -79 88 -145 95 -148 4 -2 8 -8 8 -13 0
-11 83 -121 135 -178 102 -111 145 -145 228 -178 81 -33 189 -68 237 -77 14
-3 61 -12 105 -21 116 -23 207 -30 410 -30 210 0 319 10 470 45 179 40 306 93
465 193 105 67 115 75 193 179 37 50 149 266 182 353 15 39 31 79 36 90 6 12
11 27 12 35 2 8 5 20 9 25 3 6 9 26 13 45 4 19 12 41 17 48 6 6 7 12 4 12 -4
0 -2 8 3 18 5 9 12 34 15 56 9 54 14 59 43 36 46 -36 134 -53 192 -37 80 21
100 104 41 167 -15 17 -25 30 -22 31 4 0 -3 4 -15 9 -30 12 -29 22 5 42 59 36
137 128 149 176 27 111 -10 205 -126 321 -81 82 -126 121 -139 121 -12 0 -37
34 -40 55 -2 11 -5 45 -7 75 -1 30 -6 75 -10 100 -4 25 -9 63 -11 85 -3 22 -7
47 -8 55 -2 8 -7 38 -11 65 -10 58 -12 64 -15 68 -1 1 -3 13 -5 27 -3 22 -11
62 -19 95 -12 47 -21 79 -39 135 -12 36 -22 67 -22 70 -8 44 -121 337 -135
350 -3 3 -6 11 -8 18 -6 29 -66 142 -75 142 -6 0 -8 3 -4 6 8 8 -42 92 -116
194 -72 100 -184 214 -282 289 -65 49 -247 146 -291 154 -10 2 -26 7 -34 10
-21 9 -138 37 -180 43 -41 5 -327 13 -332 9z m-1493 -2297 c8 -81 16 -135 27
-161 18 -46 -1 -45 -44 3 -49 56 -55 68 -53 105 3 40 1 36 31 68 30 33 35 31
39 -15z m3175 -31 c17 -27 17 -31 1 -60 -9 -18 -18 -34 -21 -37 -3 -3 -16 -22
-30 -42 -38 -57 -39 -55 -27 137 4 57 13 68 39 47 11 -9 28 -30 38 -45z"/>
</g>
</svg>
